<svg xmlns="http://www.w3.org/2000/svg" xmlns:xlink="http://www.w3.org/1999/xlink" id="Capa_1" x="0px" y="0px" viewBox="0 0 827.8 116.8" style="enable-background:new 0 0 827.8 116.8;" xml:space="preserve"><style type="text/css">	.st0{fill:#1F201D;}	.st1{fill:#5B83C3;}</style><g>	<rect x="203.4" class="st0" width="3.2" height="116.8"></rect>	<polygon class="st0" points="232.7,106.7 232.7,103.6 237.3,103.6 237.4,80.9 232.7,80.9 232.7,77.8 245.3,77.9 245.3,81 240.6,81   240.6,103.6 245.2,103.6 245.2,106.7  "></polygon>	<path class="st0" d="M251.1,106.7l0-21.6l3.1,0l0.1,3.7c0.7-1.2,1.7-2.1,3.1-2.9c1.4-0.8,2.9-1.2,4.4-1.2c2.4,0,4.2,0.7,5.4,2.2  c1.2,1.5,1.8,3.7,1.8,6.7l0,13.1l-3.2,0l0-12.9c0-4.2-1.7-6.3-5.1-6.2c-1.3,0-2.4,0.3-3.4,0.8c-1,0.5-1.7,1.3-2.3,2.2  c-0.6,0.9-0.8,1.9-0.8,3l0,13.1L251.1,106.7z"></path>	<polygon class="st0" points="277.9,106.7 277.9,88.2 273.1,88.2 273.1,85.2 277.9,85.2 278,79.6 281.1,79.6 281.1,85.2 286.5,85.2   286.5,88.2 281.1,88.2 281,106.7  "></polygon>	<path class="st0" d="M299.3,87.3c-2,0-3.6,0.5-4.9,1.6c-1.3,1.1-2.1,2.6-2.4,4.6l13.8,0v-0.2c-0.1-1-0.3-1.9-0.9-2.9  c-0.5-0.9-1.3-1.7-2.2-2.3C301.7,87.6,300.6,87.3,299.3,87.3 M299.6,106.7c-2.2,0-4.1-0.5-5.8-1.4c-1.7-0.9-3-2.2-3.9-3.9  c-0.9-1.7-1.4-3.6-1.4-5.8c0-2.2,0.5-4.2,1.4-5.9c0.9-1.7,2.2-3,3.8-4c1.6-1,3.5-1.5,5.6-1.5c1.9,0,3.6,0.5,5.1,1.4  c1.5,0.9,2.6,2.1,3.4,3.7c0.8,1.6,1.2,3.3,1.1,5.4l0,1.4l-17.1,0c0.1,2.3,0.9,4.2,2.4,5.6c1.5,1.4,3.4,2.1,5.8,2.1  c1,0,2.1-0.2,3.1-0.5c1-0.3,2.1-1,3.3-2l1.6,2.3c-1,0.9-2.2,1.7-3.7,2.3C302.8,106.4,301.2,106.7,299.6,106.7"></path>	<path class="st0" d="M313.3,106.7l0-21.6l3.1,0l0,4.2c0.6-1.3,1.5-2.4,2.6-3.3c1.2-0.9,2.5-1.3,4-1.3c0.5,0,0.9,0,1.3,0.1  c0.4,0.1,0.8,0.2,1,0.3l-0.9,3.5c-0.7-0.3-1.4-0.5-2.1-0.5c-1.2,0-2.3,0.3-3.2,0.9c-0.9,0.6-1.6,1.4-2.1,2.3c-0.5,1-0.7,2-0.7,3.2  l0,12.2L313.3,106.7z"></path>	<path class="st0" d="M336.9,106.7c-2,0-3.8-0.5-5.4-1.5c-1.6-1-2.8-2.3-3.8-4c-0.9-1.7-1.4-3.6-1.4-5.8c0-2.1,0.5-4.1,1.4-5.8  c0.9-1.7,2.2-3,3.8-4c1.6-1,3.4-1.5,5.5-1.5c1.8,0,3.5,0.4,5,1.1c1.5,0.7,2.7,1.8,3.6,3.1l-1.8,2.2c-0.8-1-1.8-1.8-3-2.5  c-1.2-0.6-2.4-1-3.7-1c-1.5,0-2.8,0.4-4,1.1c-1.2,0.7-2.1,1.7-2.7,2.9c-0.7,1.2-1,2.7-1,4.2c0,1.6,0.3,3,1,4.2  c0.7,1.3,1.6,2.2,2.7,3c1.2,0.7,2.4,1.1,3.9,1.1c2.5,0,4.7-1.1,6.6-3.4l1.9,2.3c-1,1.2-2.2,2.2-3.8,3  C340.2,106.4,338.6,106.7,336.9,106.7"></path>	<path class="st0" d="M359.1,103.8c1.5,0,2.9-0.4,4-1.1c1.2-0.7,2.1-1.7,2.7-2.9c0.7-1.2,1-2.7,1-4.3c0-1.6-0.3-3-1-4.2  c-0.7-1.2-1.6-2.2-2.7-2.9c-1.2-0.7-2.5-1.1-4-1.1c-1.5,0-2.9,0.4-4,1.1c-1.2,0.7-2.1,1.7-2.8,2.9c-0.7,1.2-1,2.6-1,4.2  c0,1.6,0.3,3,1,4.3c0.7,1.3,1.6,2.2,2.8,3C356.2,103.4,357.6,103.8,359.1,103.8 M359.1,106.7c-2.1,0-4-0.5-5.7-1.5  c-1.7-1-3-2.3-3.9-4c-1-1.7-1.4-3.6-1.4-5.8c0-2.1,0.5-4.1,1.5-5.8c1-1.7,2.3-3,3.9-4c1.7-1,3.6-1.4,5.7-1.4c2.1,0,4,0.5,5.7,1.5  c1.7,1,3,2.3,3.9,4c0.9,1.7,1.4,3.6,1.4,5.8c0,2.2-0.5,4.1-1.4,5.8c-1,1.7-2.3,3-3.9,4C363.1,106.3,361.2,106.7,359.1,106.7"></path>	<path class="st0" d="M374.6,106.7l0-21.6l3.1,0l0.1,3.7c0.7-1.2,1.7-2.1,3.1-2.9c1.4-0.8,2.9-1.2,4.4-1.2c2.4,0,4.2,0.7,5.4,2.2  c1.2,1.5,1.8,3.7,1.8,6.7l0,13.1l-3.2,0l0-12.9c0-4.2-1.7-6.3-5.1-6.2c-1.3,0-2.4,0.3-3.4,0.8c-1,0.5-1.7,1.3-2.3,2.2  c-0.6,0.9-0.8,1.9-0.9,3l0,13.1L374.6,106.7z"></path>	<polygon class="st0" points="401.4,106.7 401.4,88.2 396.6,88.2 396.6,85.2 401.4,85.2 401.4,79.6 404.5,79.6 404.5,85.2   409.9,85.2 409.9,88.2 404.5,88.2 404.5,106.7  "></polygon>	<path class="st0" d="M414.1,106.7l0-21.6l3.2,0l0,21.6L414.1,106.7z M415.8,80.5c-0.8,0-1.4-0.2-1.8-0.6c-0.4-0.4-0.6-1-0.6-1.7  c0-0.7,0.2-1.2,0.6-1.6c0.4-0.4,1-0.6,1.8-0.6c0.7,0,1.3,0.2,1.7,0.6c0.4,0.4,0.6,1,0.6,1.7c0,0.7-0.2,1.2-0.6,1.6  C417.1,80.3,416.5,80.6,415.8,80.5"></path>	<path class="st0" d="M423.6,106.7l0-21.6l3.1,0l0.1,3.7c0.7-1.2,1.7-2.1,3.1-2.9c1.4-0.8,2.9-1.2,4.4-1.2c2.4,0,4.2,0.7,5.4,2.2  c1.2,1.5,1.8,3.7,1.8,6.7l0,13.1l-3.2,0l0-12.9c0-4.2-1.7-6.3-5.1-6.2c-1.3,0-2.4,0.3-3.4,0.8c-1,0.5-1.7,1.3-2.3,2.2  c-0.6,0.9-0.8,1.9-0.9,3l0,13.1L423.6,106.7z"></path>	<path class="st0" d="M456.6,87.3c-2,0-3.6,0.5-4.9,1.6c-1.3,1.1-2.1,2.6-2.4,4.6l13.8,0v-0.2c-0.1-1-0.3-1.9-0.9-2.9  c-0.5-0.9-1.3-1.7-2.2-2.3C459,87.6,457.9,87.3,456.6,87.3 M456.9,106.7c-2.2,0-4.1-0.5-5.8-1.4c-1.7-0.9-3-2.2-3.9-3.9  c-0.9-1.7-1.4-3.6-1.4-5.8c0-2.2,0.5-4.2,1.4-5.9c0.9-1.7,2.2-3,3.8-4c1.6-1,3.5-1.5,5.6-1.5c1.9,0,3.6,0.5,5.1,1.4  c1.5,0.9,2.6,2.1,3.4,3.7c0.8,1.6,1.2,3.3,1.1,5.4l0,1.4l-17.1,0c0.1,2.3,0.9,4.2,2.4,5.6c1.5,1.4,3.4,2.1,5.8,2.1  c1,0,2.1-0.2,3.1-0.5c1-0.3,2.1-1,3.3-2l1.6,2.3c-1,0.9-2.2,1.7-3.7,2.3C460.1,106.4,458.6,106.7,456.9,106.7"></path>	<path class="st0" d="M470.6,106.7l0-21.6l3.1,0l0.1,3.7c0.7-1.2,1.7-2.1,3.1-2.9c1.4-0.8,2.9-1.2,4.4-1.2c2.4,0,4.2,0.7,5.4,2.2  c1.2,1.5,1.8,3.7,1.8,6.7l0,13.1l-3.2,0l0-12.9c0-4.2-1.7-6.3-5.1-6.2c-1.3,0-2.4,0.3-3.4,0.8c-1,0.5-1.7,1.3-2.3,2.2  c-0.6,0.9-0.8,1.9-0.9,3l0,13.1L470.6,106.7z"></path>	<polygon class="st0" points="497.4,106.7 497.4,88.2 492.6,88.2 492.6,85.2 497.4,85.2 497.4,79.6 500.6,79.6 500.6,85.2 506,85.2   506,88.2 500.5,88.2 500.5,106.7  "></polygon>	<path class="st0" d="M518.7,103.7c1.4,0,2.7-0.3,3.8-1c1.1-0.7,2-1.7,2.7-2.9c0.6-1.2,1-2.7,1-4.3c0-1.6-0.3-3-1-4.2  c-0.6-1.2-1.5-2.2-2.7-2.9s-2.4-1.1-3.8-1.1c-1.5,0-2.7,0.3-3.9,1c-1.1,0.7-2,1.7-2.6,2.9c-0.6,1.2-1,2.6-1,4.2  c0,1.6,0.3,3,0.9,4.3c0.6,1.3,1.5,2.2,2.6,2.9C515.9,103.4,517.2,103.7,518.7,103.7 M518,106.7c-1.9,0-3.6-0.5-5.1-1.5  c-1.5-1-2.7-2.3-3.6-4c-0.9-1.7-1.3-3.6-1.3-5.8c0-2.2,0.5-4.1,1.4-5.8c0.9-1.7,2.1-3,3.7-4c1.5-1,3.3-1.4,5.2-1.4  c1.7,0,3.3,0.4,4.6,1.2c1.4,0.8,2.4,1.8,3.1,3.1l0.1-3.8l3.1,0l0,21.6l-3.2,0l0-3.8c-0.8,1.2-1.9,2.2-3.3,3  C521.2,106.3,519.7,106.7,518,106.7"></path>			<rect x="521.5" y="89.9" transform="matrix(1.833674e-03 -1 1 1.833674e-03 444.3361 628.1093)" class="st0" width="30.5" height="3.1"></rect>	<path class="st0" d="M565.2,103.9c1.4,0,2.7-0.4,3.8-1.1c1.1-0.7,2-1.7,2.7-2.9c0.7-1.3,1-2.7,1-4.3c0-1.6-0.3-3.1-1-4.3  c-0.6-1.3-1.5-2.2-2.7-3c-1.1-0.7-2.4-1.1-3.8-1.1c-1.5,0-2.8,0.4-3.9,1.1c-1.1,0.7-2,1.7-2.6,2.9c-0.6,1.2-1,2.7-1,4.3  c0,1.6,0.3,3,0.9,4.3c0.6,1.3,1.5,2.3,2.6,3C562.4,103.5,563.7,103.9,565.2,103.9 M564.8,106.7c-2,0-3.7-0.5-5.3-1.5  c-1.6-1-2.8-2.3-3.7-4c-0.9-1.7-1.3-3.6-1.3-5.8c0-2.1,0.5-4.1,1.4-5.8c0.9-1.7,2.1-3,3.7-4c1.5-1,3.3-1.5,5.2-1.5  c1.6,0,3.2,0.4,4.6,1.1c1.4,0.8,2.5,1.7,3.2,2.8l0-12.4l3.1,0l-0.1,30.5l-3.1,0l-0.1-3.6c-0.7,1.1-1.7,2.1-3.1,2.9  S566.4,106.7,564.8,106.7"></path>	<path class="st0" d="M590.8,87.3c-2,0-3.6,0.5-4.9,1.6c-1.3,1.1-2.1,2.6-2.4,4.6l13.8,0l0-0.2c-0.1-1-0.3-1.9-0.9-2.9  c-0.5-0.9-1.3-1.7-2.2-2.3C593.3,87.6,592.2,87.3,590.8,87.3 M591.2,106.7c-2.2,0-4.1-0.5-5.8-1.4c-1.7-0.9-3-2.2-3.9-3.9  c-0.9-1.7-1.4-3.6-1.4-5.8c0-2.2,0.5-4.1,1.4-5.9c0.9-1.7,2.2-3,3.8-4c1.6-1,3.5-1.5,5.6-1.5c1.9,0,3.6,0.5,5.1,1.3  c1.5,0.9,2.6,2.1,3.4,3.7c0.8,1.6,1.2,3.4,1.1,5.4l0,1.4l-17.1,0c0.1,2.3,0.9,4.2,2.4,5.6c1.5,1.4,3.4,2.1,5.8,2.1  c1,0,2.1-0.2,3.1-0.5c1-0.3,2.1-1,3.3-2l1.6,2.3c-1,0.9-2.2,1.7-3.7,2.3C594.4,106.4,592.8,106.7,591.2,106.7"></path>			<rect x="602.8" y="89.9" transform="matrix(1.833672e-03 -1 1 1.833672e-03 525.484 709.4047)" class="st0" width="30.5" height="3.1"></rect>	<path class="st0" d="M634.4,103.7c1.4,0,2.7-0.3,3.8-1c1.1-0.7,2-1.7,2.7-2.9c0.6-1.2,1-2.7,1-4.3c0-1.6-0.3-3-1-4.2  c-0.6-1.2-1.5-2.2-2.7-2.9c-1.1-0.7-2.4-1.1-3.8-1.1c-1.5,0-2.7,0.3-3.9,1c-1.1,0.7-2,1.7-2.6,2.9c-0.6,1.2-1,2.6-1,4.2  c0,1.6,0.3,3,0.9,4.3c0.6,1.3,1.5,2.2,2.6,2.9C631.7,103.4,633,103.7,634.4,103.7 M633.7,106.7c-1.9,0-3.6-0.5-5.1-1.5  c-1.5-1-2.7-2.3-3.6-4c-0.9-1.7-1.3-3.6-1.3-5.8c0-2.2,0.5-4.1,1.4-5.8c0.9-1.7,2.1-3,3.7-4c1.5-1,3.3-1.4,5.2-1.4  c1.7,0,3.3,0.4,4.6,1.2c1.4,0.8,2.4,1.8,3.1,3.1l0.1-3.8l3.1,0l0,21.6l-3.2,0l0-3.8c-0.8,1.2-1.9,2.2-3.3,3  C637,106.3,635.4,106.7,633.7,106.7"></path>	<polygon class="st0" points="663.9,106.7 664,77.8 681.5,77.9 681.5,81 667.3,81 667.2,90.3 679.2,90.3 679.2,93.5 667.2,93.4   667.2,103.5 681.4,103.6 681.4,106.7  "></polygon>	<path class="st0" d="M687.4,106.7l0-21.6l3.1,0l0,3.7c0.7-1.2,1.7-2.2,3.1-3c1.3-0.8,2.8-1.1,4.3-1.1c1.5,0,2.9,0.4,3.9,1.1  c1.1,0.7,1.9,1.9,2.4,3.7c0.4-0.9,1-1.6,1.8-2.3c0.8-0.7,1.7-1.3,2.7-1.7c1-0.4,2.1-0.7,3.3-0.7c2.3,0,4,0.7,5.2,2.2  c1.2,1.5,1.8,3.7,1.8,6.8l0,13l-3.2,0l0-12.8c0-2.1-0.4-3.7-1.2-4.7c-0.8-1-2-1.5-3.6-1.5c-1.2,0-2.3,0.3-3.3,0.8  c-1,0.5-1.7,1.3-2.3,2.2c-0.5,0.9-0.8,1.9-0.8,3l0,13l-3.2,0l0-12.9c0-4.1-1.6-6.1-4.8-6.2c-1.2,0-2.3,0.3-3.3,0.8  c-1,0.5-1.7,1.3-2.3,2.2c-0.5,0.9-0.8,1.9-0.8,3l0,13.1L687.4,106.7z"></path>	<path class="st0" d="M735.6,103.6c1.5,0,2.8-0.4,3.9-1.1c1.1-0.7,2-1.7,2.7-2.9c0.6-1.2,1-2.6,1-4.2c0-1.6-0.3-3-1-4.2  c-0.6-1.2-1.5-2.2-2.7-2.9c-1.1-0.7-2.4-1.1-3.9-1.1c-1.5,0-2.8,0.3-3.9,1c-1.1,0.7-2,1.7-2.7,2.9c-0.6,1.2-1,2.6-1,4.2  c0,1.6,0.3,3,1,4.3c0.7,1.2,1.5,2.2,2.7,2.9C732.8,103.2,734.1,103.6,735.6,103.6 M725,115.2l0.1-30.6l3.1,0l0,3.9  c0.7-1.2,1.8-2.2,3.2-3.1c1.4-0.8,3-1.3,4.6-1.2c1.9,0,3.7,0.5,5.2,1.5c1.5,1,2.8,2.3,3.6,4c0.9,1.7,1.3,3.6,1.3,5.8  c0,2.1-0.4,4.1-1.3,5.8c-0.9,1.7-2.1,3-3.6,4c-1.5,1-3.3,1.4-5.2,1.4c-1.7,0-3.2-0.4-4.7-1.2c-1.4-0.8-2.5-1.8-3.2-3l0,12.9  L725,115.2z"></path>	<path class="st0" d="M750.7,106.7l0-21.6l3.1,0l0,4.2c0.6-1.3,1.5-2.4,2.6-3.3c1.2-0.9,2.5-1.3,4-1.3c0.5,0,0.9,0,1.3,0.1  c0.4,0.1,0.8,0.2,1,0.3l-0.9,3.5c-0.7-0.3-1.4-0.5-2.1-0.5c-1.2,0-2.3,0.3-3.2,0.9c-0.9,0.6-1.6,1.4-2.1,2.3c-0.5,1-0.7,2-0.7,3.2  l0,12.2L750.7,106.7z"></path>	<path class="st0" d="M774.4,87.3c-2,0-3.6,0.5-4.9,1.6c-1.3,1.1-2.1,2.6-2.4,4.6l13.8,0l0-0.2c-0.1-1-0.3-1.9-0.9-2.9  c-0.5-0.9-1.3-1.7-2.2-2.3C776.9,87.6,775.7,87.3,774.4,87.3 M774.7,106.7c-2.2,0-4.1-0.5-5.8-1.4c-1.7-0.9-3-2.2-3.9-3.9  c-0.9-1.7-1.4-3.6-1.4-5.8c0-2.2,0.5-4.2,1.4-5.9c0.9-1.7,2.2-3,3.8-4c1.6-1,3.5-1.5,5.6-1.5c1.9,0,3.6,0.5,5.1,1.3  c1.5,0.9,2.6,2.1,3.4,3.7c0.8,1.6,1.2,3.3,1.1,5.4l0,1.4l-17.1,0c0.1,2.3,0.9,4.2,2.4,5.6c1.5,1.4,3.4,2.1,5.8,2.1  c1,0,2.1-0.2,3.1-0.5c1-0.3,2.1-1,3.3-2l1.6,2.3c-1,0.9-2.2,1.7-3.7,2.3C778,106.4,776.4,106.7,774.7,106.7"></path>	<path class="st0" d="M795.5,106.7c-1.9,0-3.5-0.3-5-1c-1.4-0.7-2.6-1.6-3.5-2.7l2.2-1.9c1.6,2,3.7,2.9,6.5,2.9  c1.3,0,2.4-0.3,3.2-0.9c0.8-0.6,1.3-1.4,1.3-2.5c0-0.9-0.4-1.6-1.2-2.2c-0.4-0.3-0.9-0.5-1.5-0.8c-0.7-0.2-1.5-0.5-2.4-0.8  c-1.5-0.4-2.8-0.9-3.8-1.3c-1-0.5-1.8-1-2.4-1.6c-0.8-0.9-1.2-2.1-1.2-3.5c0-1.2,0.3-2.2,1-3.2c0.6-0.9,1.5-1.6,2.7-2.2  c1.1-0.5,2.4-0.8,3.9-0.8c1.5,0,3,0.3,4.5,1c1.4,0.7,2.6,1.5,3.5,2.5l-1.9,2.1c-0.8-0.9-1.7-1.5-2.7-2.1c-1-0.5-2.1-0.8-3.2-0.8  c-1.3,0-2.4,0.3-3.2,0.9c-0.8,0.6-1.2,1.4-1.2,2.4c0,0.8,0.3,1.5,0.9,2c0.4,0.3,0.9,0.6,1.6,0.8c0.7,0.3,1.6,0.5,2.6,0.8  c1.2,0.3,2.2,0.7,3.1,1c0.9,0.3,1.6,0.8,2.1,1.2c1.4,1,2.1,2.5,2.1,4.3c0,1.2-0.3,2.3-1,3.2c-0.7,0.9-1.6,1.7-2.8,2.2  C798.3,106.5,797,106.7,795.5,106.7"></path>	<path class="st0" d="M817.3,103.7c1.4,0,2.7-0.3,3.8-1c1.1-0.7,2-1.7,2.7-2.9c0.6-1.2,1-2.7,1-4.3c0-1.6-0.3-3-1-4.2  c-0.6-1.2-1.5-2.2-2.7-2.9c-1.1-0.7-2.4-1.1-3.8-1.1c-1.5,0-2.7,0.3-3.9,1c-1.1,0.7-2,1.7-2.6,2.9c-0.6,1.2-1,2.6-1,4.2  c0,1.6,0.3,3,0.9,4.3c0.6,1.3,1.5,2.2,2.6,2.9C814.6,103.4,815.8,103.7,817.3,103.7 M816.6,106.7c-1.9,0-3.6-0.5-5.1-1.5  c-1.5-1-2.7-2.3-3.6-4c-0.9-1.7-1.3-3.6-1.3-5.8c0-2.2,0.5-4.1,1.4-5.8c0.9-1.7,2.1-3,3.7-4c1.5-1,3.3-1.4,5.2-1.4  c1.7,0,3.3,0.4,4.6,1.2c1.4,0.8,2.4,1.8,3.1,3.1l0.1-3.8l3.1,0l0,21.6l-3.2,0l0-3.8c-0.8,1.2-1.9,2.2-3.3,3  C819.9,106.3,818.3,106.7,816.6,106.7"></path>	<path class="st0" d="M253.2,65.5c-4,0-7.6-0.8-10.7-2.4c-3.1-1.6-5.5-3.8-7.3-6.7c-1.8-2.8-2.7-6.1-2.7-9.7V17.2h12.4v28.9  c0,2.5,0.8,4.6,2.4,6.2c1.6,1.6,3.6,2.5,5.9,2.5c2.4,0,4.4-0.8,6.1-2.5c1.6-1.6,2.5-3.7,2.5-6.2V17.2h12.1v29.5  c0,3.6-0.9,6.9-2.7,9.7c-1.8,2.8-4.2,5.1-7.4,6.7C260.7,64.7,257.2,65.5,253.2,65.5"></path>	<path class="st0" d="M284.3,65.1V28.7h10.9l0.3,4.2c1.3-1.5,2.9-2.7,4.8-3.6c1.9-0.9,4-1.4,6.1-1.4c4.1,0,7.2,1.3,9.4,3.8  c2.2,2.5,3.2,6.2,3.2,11v22.4h-11.6V43.7c0-4.1-1.8-6.1-5.3-6c-1.8,0-3.3,0.5-4.5,1.6c-1.2,1.1-1.8,2.4-1.8,4v21.8H284.3z"></path>	<path class="st0" d="M329,28.7h11.6v36.4H329V28.7z M334.8,21.7c-2.1,0-3.8-0.5-5-1.5c-1.2-1-1.8-2.5-1.8-4.3  c0-1.7,0.6-3.1,1.8-4.2c1.2-1.1,2.9-1.6,5-1.6c2.1,0,3.8,0.5,5,1.5c1.2,1,1.8,2.5,1.8,4.3c0,1.7-0.6,3.1-1.8,4.2  S336.9,21.7,334.8,21.7"></path>	<polygon class="st0" points="362,65.1 346.8,28.7 359.6,28.7 366.9,51.5 374.4,28.7 387.1,28.7 371.2,65.1  "></polygon>	<path class="st0" d="M407.7,37.6c-4.1,0-6.7,1.9-7.6,5.6h14.1v-0.1c-0.1-1.6-0.7-2.9-1.9-4C411,38.1,409.5,37.6,407.7,37.6   M409,65.8c-4.1,0-7.6-0.8-10.6-2.4c-3-1.6-5.3-3.8-6.9-6.7c-1.6-2.8-2.5-6-2.5-9.6c0-3.7,0.8-7,2.4-9.9c1.6-2.9,3.8-5.1,6.6-6.7  c2.8-1.6,6-2.5,9.5-2.5c3.4,0,6.5,0.8,9.1,2.4c2.6,1.6,4.7,3.8,6.2,6.6c1.5,2.8,2.2,6,2.1,9.5l-0.1,2.9h-24.6  c0.6,2,1.7,3.5,3.5,4.7c1.7,1.1,3.9,1.7,6.6,1.7c1.5,0,2.8-0.2,4-0.7c1.2-0.4,2.4-1.2,3.7-2.2l5.4,7.7c-2.3,1.9-4.6,3.2-7,4  C414,65.4,411.5,65.8,409,65.8"></path>	<path class="st0" d="M431.7,65.1V28.7h10.9l0.2,5.4c1.2-1.8,2.8-3.3,4.7-4.4c1.9-1.1,3.9-1.7,6.1-1.7c0.8,0,1.5,0.1,2.3,0.2  c0.7,0.1,1.4,0.3,2,0.5l-3.1,12.8c-0.5-0.3-1.2-0.5-2.1-0.8c-0.9-0.3-1.8-0.4-2.8-0.4c-1.9,0-3.5,0.6-4.7,1.9  c-1.2,1.3-1.8,2.9-1.8,5v17.9H431.7z"></path>	<path class="st0" d="M475.7,65.8c-3.7,0-6.9-0.6-9.6-1.7c-2.8-1.1-5-2.7-6.6-4.6l7-6c1.4,1.4,3,2.4,4.8,3.1c1.8,0.6,3.5,1,5,1  c1.2,0,2.1-0.2,2.7-0.7c0.6-0.5,1-1.1,1-1.9c0-0.9-0.4-1.5-1.2-2c-0.8-0.5-2.7-1.1-5.7-1.8c-4.2-1-7.3-2.6-9.3-4.5  c-1-0.9-1.7-2-2.2-3.2c-0.5-1.2-0.8-2.5-0.8-4c0-2.3,0.7-4.3,2.1-6.1c1.4-1.7,3.2-3,5.4-4s4.7-1.4,7.2-1.4c3.1,0,5.9,0.5,8.5,1.5  c2.6,1,4.9,2.3,6.8,4l-6,6.8c-1.2-1.1-2.6-2.1-4.3-2.9c-1.7-0.8-3.4-1.2-5-1.2c-2.4,0-3.6,0.9-3.6,2.6c0,1,0.5,1.7,1.4,2.3  c0.4,0.2,1.1,0.5,2.1,0.9c1,0.3,2.4,0.8,4.2,1.3c2.1,0.6,4,1.3,5.5,2c1.5,0.8,2.8,1.6,3.7,2.6c1.5,1.6,2.2,3.6,2.2,5.9  c0,2.4-0.7,4.5-2,6.3c-1.3,1.8-3.2,3.3-5.5,4.3C481.3,65.3,478.6,65.8,475.7,65.8"></path>	<path class="st0" d="M498.2,28.7h11.6v36.4h-11.6V28.7z M503.9,21.7c-2.1,0-3.8-0.5-5-1.5c-1.2-1-1.8-2.5-1.8-4.3  c0-1.7,0.6-3.1,1.8-4.2c1.2-1.1,2.9-1.6,5-1.6c2.1,0,3.8,0.5,5,1.5c1.2,1,1.8,2.5,1.8,4.3c0,1.7-0.6,3.1-1.8,4.2  S506.1,21.7,503.9,21.7"></path>	<path class="st0" d="M536.7,56.3c2.4,0,4.3-0.8,5.7-2.5c1.4-1.7,2.1-4,2.1-6.8c0-2.8-0.7-5.1-2.1-6.8c-1.4-1.7-3.3-2.5-5.7-2.5  c-2.4,0-4.3,0.8-5.6,2.5c-1.4,1.7-2.1,3.9-2.1,6.8c0,2.9,0.7,5.2,2.1,6.8C532.5,55.5,534.3,56.3,536.7,56.3 M533.6,65.9  c-3.1,0-5.9-0.8-8.3-2.4c-2.4-1.6-4.3-3.9-5.7-6.7c-1.4-2.9-2.1-6.1-2.1-9.8c0-3.6,0.7-6.9,2.1-9.7c1.4-2.8,3.3-5.1,5.8-6.7  c2.4-1.6,5.2-2.5,8.4-2.5c2.1,0,4,0.4,5.8,1.2s3.4,1.8,4.6,3V14.5h11.6v50.6h-10.7l-0.3-3.8c-1.2,1.3-2.8,2.4-4.8,3.3  C538.1,65.4,536,65.9,533.6,65.9"></path>	<path class="st0" d="M581.6,56.1c2.4,0,4.3-0.8,5.7-2.5c1.4-1.7,2.1-3.9,2.1-6.7c0-2.8-0.7-5-2.1-6.7c-1.4-1.7-3.3-2.5-5.7-2.5  c-2.4,0-4.3,0.8-5.6,2.5c-1.4,1.7-2.1,3.9-2.1,6.7c0,2.8,0.7,5.1,2.1,6.7C577.3,55.3,579.2,56.1,581.6,56.1 M578.3,65.7  c-3,0-5.7-0.8-8.1-2.4c-2.4-1.6-4.3-3.9-5.7-6.7c-1.4-2.8-2.1-6.1-2.1-9.7c0-3.7,0.7-7,2.1-9.8c1.4-2.8,3.3-5.1,5.7-6.7  c2.4-1.6,5.2-2.4,8.4-2.4c2.4,0,4.4,0.5,6.2,1.4c1.8,0.9,3.3,2.1,4.4,3.6v-4.2h11.4v36.4H589v-4.2c-1.2,1.4-2.8,2.6-4.6,3.5  C582.6,65.3,580.6,65.7,578.3,65.7"></path>	<path class="st0" d="M627.1,56.3c2.4,0,4.3-0.8,5.7-2.5c1.4-1.7,2.1-4,2.1-6.8c0-2.8-0.7-5.1-2.1-6.8c-1.4-1.7-3.3-2.5-5.7-2.5  c-2.4,0-4.3,0.8-5.6,2.5c-1.4,1.7-2.1,3.9-2.1,6.8c0,2.9,0.7,5.2,2.1,6.8C622.8,55.5,624.7,56.3,627.1,56.3 M624,65.9  c-3.1,0-5.9-0.8-8.3-2.4c-2.4-1.6-4.3-3.9-5.7-6.7c-1.4-2.9-2.1-6.1-2.1-9.8c0-3.6,0.7-6.9,2.1-9.7c1.4-2.8,3.3-5.1,5.8-6.7  c2.4-1.6,5.2-2.5,8.4-2.5c2.1,0,4,0.4,5.8,1.2s3.4,1.8,4.6,3V14.5h11.6v50.6h-10.7l-0.3-3.8c-1.2,1.3-2.8,2.4-4.8,3.3  C628.5,65.4,626.3,65.9,624,65.9"></path>	<path class="st0" d="M32.8,105.6c-6.4,0-12.1-1.2-17-3.7C10.9,99.4,7,96,4.2,91.6C1.4,87.3,0,82.3,0,76.7V31.3h22.9v44.4  c0,3.1,0.9,5.6,2.8,7.6c1.9,2,4.2,2.9,7.1,2.9c3,0,5.5-1,7.5-2.9c2-2,2.9-4.5,2.9-7.6V31.3h22.4v45.4c0,5.6-1.4,10.6-4.2,14.9  c-2.8,4.4-6.7,7.8-11.6,10.3C44.9,104.4,39.2,105.6,32.8,105.6"></path>	<path class="st0" d="M147.5,105.6c0.1,0,0.3,0,0.4,0c-0.3,0-0.6,0-0.9,0H147.5z"></path>	<polygon class="st0" points="112.7,31.3 88,105.6 63.3,105.6 88.3,31.3  "></polygon>	<path class="st1" d="M94.4,14.3c0,7.9-6.4,14.3-14.3,14.3s-14.3-6.4-14.3-14.3C65.7,6.4,72.1,0,80,0S94.4,6.4,94.4,14.3"></path>	<path class="st0" d="M157.7,61.2h-27.1H130c1.6-6.5,5.7-10.1,12.2-10.9c0.8-0.1,1.7-0.1,2.7-0.1c1.4,0,2.7,0.2,4,0.5  c1.9,0.5,3.5,1.3,5,2.6c2.4,2.1,3.7,4.7,3.8,7.8V61.2z M178.5,73.5l0.1-5.8c0.1-7-1.3-13.2-4.2-18.7c-2.9-5.5-6.9-9.8-12.1-12.9  c-4.7-2.8-10-4.4-15.9-4.7c-0.7,0-1.3,0-2,0c-7,0-13.2,1.6-18.7,4.8c-5.5,3.2-9.8,7.6-12.9,13.2c-3.1,5.6-4.7,12.1-4.7,19.4  c0,7.1,1.6,13.4,4.8,18.9c3.2,5.5,7.8,9.9,13.6,13.1c5.1,2.8,11.1,4.3,17.8,4.7h0.1c0.4,0,0.8,0,1.2,0c0.3,0,0.6,0,1,0h0.3  c0.3,0,0.6,0,0.9,0c10.4-0.4,19.6-5.5,25.8-13.3c1.1-1.3,2-2.7,2.9-4.2l-8.7-4l-4.8-2.2l-2.6-1.2l-0.8-0.4  c-1.6,1.9-3.6,3.5-5.8,4.6c0,0,0,0-0.1,0c-1.4,0.5-2.8,0.8-4.2,1c-0.6,0.1-1.3,0.1-2,0.1c-5,0-9.6-2-12.9-5.3c0,0-0.1-0.1-0.1-0.1  c-1.6-1.6-2.9-3.5-3.8-5.7c0,0,0,0,0,0c0-0.1-0.1-0.3-0.1-0.4c-0.1-0.3-0.3-0.7-0.4-1H178.5z"></path></g></svg>